<?xml version="1.0" encoding="UTF-8"?>
<svg xmlns="http://www.w3.org/2000/svg" xmlns:xlink="http://www.w3.org/1999/xlink" width="64px" height="64px" viewBox="0 0 64 64" version="1.1">
<g id="surface1">
<path style=" stroke:none;fill-rule:nonzero;fill:rgb(100%,100%,100%);fill-opacity:1;" d="M 60.800781 24.933594 L 54.667969 19.867188 L 54.667969 10 C 54.65625 9.476562 54.34375 9.007812 53.867188 8.800781 L 40.667969 2.800781 L 40.132812 2.800781 L 39.332031 3.066406 L 32 7.867188 L 24.667969 2.933594 L 23.867188 2.667969 L 23.332031 2.667969 L 10.132812 8.800781 C 9.65625 9.007812 9.34375 9.476562 9.332031 10 L 9.332031 19.867188 L 3.199219 24.933594 C 2.820312 25.148438 2.609375 25.570312 2.667969 26 L 2.667969 38 C 2.609375 38.429688 2.820312 38.851562 3.199219 39.066406 L 9.332031 44.132812 L 9.332031 54 C 9.34375 54.523438 9.65625 54.992188 10.132812 55.199219 L 23.332031 61.199219 L 23.867188 61.199219 L 24.667969 60.933594 L 32 56.132812 L 39.332031 61.066406 L 40.132812 61.332031 L 40.667969 61.332031 L 53.867188 55.332031 C 54.34375 55.125 54.65625 54.65625 54.667969 54.132812 L 54.667969 44.132812 L 60.800781 39.066406 C 61.132812 38.875 61.335938 38.519531 61.332031 38.132812 L 61.332031 25.867188 C 61.335938 25.480469 61.132812 25.125 60.800781 24.933594 Z M 54 34 L 56 34 L 56 36.132812 L 51.332031 39.867188 L 50.800781 40.265625 L 50.265625 40 C 49.796875 39.730469 49.230469 39.675781 48.71875 39.855469 C 48.207031 40.035156 47.800781 40.429688 47.601562 40.933594 C 47.101562 41.890625 47.457031 43.074219 48.398438 43.601562 L 49.332031 44 L 49.332031 51.199219 L 40.535156 55.332031 L 34.933594 51.601562 L 34 50.933594 L 34 34 L 36 34 C 37.105469 34 38 33.105469 38 32 C 38 30.894531 37.105469 30 36 30 L 34 30 L 34 12.933594 L 34.933594 12.265625 L 40.535156 8.535156 L 49.332031 12.667969 L 49.332031 19.867188 L 48.398438 20.265625 C 47.457031 20.792969 47.101562 21.972656 47.601562 22.933594 C 47.875 23.652344 48.5625 24.128906 49.332031 24.132812 L 50.265625 23.867188 L 50.800781 23.601562 L 51.332031 24 L 56 27.867188 L 56 30 L 54 30 C 52.894531 30 52 30.894531 52 32 C 52 33.105469 52.894531 34 54 34 Z M 28 34 L 30 34 L 30 51.066406 L 29.066406 51.734375 L 23.464844 55.464844 L 14.667969 51.332031 L 14.667969 44.132812 L 15.601562 43.734375 C 16.542969 43.207031 16.898438 42.027344 16.398438 41.066406 C 16.199219 40.5625 15.792969 40.167969 15.28125 39.988281 C 14.769531 39.808594 14.203125 39.863281 13.734375 40.132812 L 13.199219 40.398438 L 12.667969 40 L 8 36.132812 L 8 34 L 10 34 C 11.105469 34 12 33.105469 12 32 C 12 30.894531 11.105469 30 10 30 L 8 30 L 8 27.867188 L 12.667969 24.132812 L 13.199219 23.734375 L 13.734375 24 L 14.667969 24.265625 C 15.4375 24.261719 16.125 23.785156 16.398438 23.066406 C 16.898438 22.109375 16.542969 20.925781 15.601562 20.398438 L 14.667969 20 L 14.667969 12.667969 L 23.464844 8.535156 L 29.066406 12.265625 L 30 12.933594 L 30 30 L 28 30 C 26.894531 30 26 30.894531 26 32 C 26 33.105469 26.894531 34 28 34 Z M 28 34 "/>
<path style=" stroke:none;fill-rule:nonzero;fill:rgb(100%,100%,100%);fill-opacity:1;" d="M 18.535156 13.199219 C 17.867188 14.0625 17.867188 15.269531 18.535156 16.132812 L 22 19.464844 L 22 23.199219 L 16.667969 28.535156 L 16.667969 35.464844 L 22 40.800781 L 22 44.535156 L 18.535156 47.867188 C 17.867188 48.730469 17.867188 49.9375 18.535156 50.800781 C 18.929688 51.167969 19.460938 51.363281 20 51.332031 C 20.539062 51.363281 21.070312 51.167969 21.464844 50.800781 L 26 46.132812 L 26 39.199219 L 20.667969 33.867188 L 20.667969 30.132812 L 26 24.800781 L 26 17.867188 L 21.464844 13.199219 C 20.601562 12.53125 19.398438 12.53125 18.535156 13.199219 Z M 18.535156 13.199219 "/>
<path style=" stroke:none;fill-rule:nonzero;fill:rgb(100%,100%,100%);fill-opacity:1;" d="M 42 19.464844 L 45.464844 16.132812 C 46.132812 15.269531 46.132812 14.0625 45.464844 13.199219 C 44.601562 12.53125 43.398438 12.53125 42.535156 13.199219 L 38 17.867188 L 38 24.800781 L 43.332031 30.132812 L 43.332031 33.867188 L 38 39.199219 L 38 46.132812 L 42.535156 50.800781 C 43.378906 51.519531 44.621094 51.519531 45.464844 50.800781 C 46.132812 49.9375 46.132812 48.730469 45.464844 47.867188 L 42 44.535156 L 42 40.800781 L 47.332031 35.464844 L 47.332031 28.535156 L 42 23.199219 Z M 42 19.464844 "/>
</g>
</svg>
