<?xml version="1.0" encoding="UTF-8"?>
<svg xmlns="http://www.w3.org/2000/svg" xmlns:xlink="http://www.w3.org/1999/xlink" width="64px" height="64px" viewBox="0 0 64 64" version="1.1">
<g id="surface1">
<path style=" stroke:none;fill-rule:evenodd;fill:rgb(100%,100%,100%);fill-opacity:1;" d="M 25.929688 9.53125 C 17.980469 12.882812 10.039062 21.796875 10.007812 27.402344 C 10 28.308594 8.382812 32.980469 0.945312 53.546875 L 0.0273438 56.09375 L 18.511719 55.878906 C 39.242188 55.640625 40.265625 55.433594 45.851562 50.386719 C 58.402344 39.046875 48.128906 16.601562 31.96875 20.070312 C 18.628906 22.929688 17.875 43.023438 31.050781 44.507812 C 39.453125 45.453125 43.179688 36.890625 36.855469 31.171875 C 35.628906 30.058594 35.496094 30.089844 33.773438 31.890625 C 31.972656 33.765625 31.972656 33.769531 33.320312 34.988281 C 36.335938 37.714844 34.09375 40.925781 30.359375 39.222656 C 26.15625 37.308594 25.378906 31.15625 28.894531 27.640625 C 37.816406 18.714844 51.660156 33.402344 44.433594 44.125 C 33.300781 60.644531 7.691406 43.273438 16.238281 25 C 22.066406 12.539062 37.28125 9.378906 49.671875 18.058594 L 53.472656 20.722656 L 58.402344 17.011719 C 63.839844 12.921875 63.890625 12.828125 62.042969 10.574219 C 60.644531 8.871094 60.882812 8.804688 56.082031 12.222656 L 53.429688 14.113281 L 47.65625 11.25 C 40.132812 7.523438 32.179688 6.894531 25.929688 9.53125 M 10.667969 41.519531 C 10.667969 41.769531 9.929688 43.925781 9.03125 46.316406 L 7.394531 50.667969 L 17.566406 50.667969 L 16.183594 49.167969 C 15.425781 48.34375 13.875 46.183594 12.734375 44.371094 C 11.597656 42.554688 10.667969 41.273438 10.667969 41.519531 "/>
</g>
</svg>
