<?xml version="1.0" encoding="UTF-8"?>
<svg xmlns="http://www.w3.org/2000/svg" xmlns:xlink="http://www.w3.org/1999/xlink" width="64px" height="64px" viewBox="0 0 64 64" version="1.1">
<g id="surface1">
<path style=" stroke:none;fill-rule:evenodd;fill:rgb(100%,100%,100%);fill-opacity:1;" d="M 26.011719 41.542969 L 38.015625 41.542969 C 38.816406 44.308594 40.652344 46.660156 43.148438 48.101562 C 45.710938 49.578125 48.753906 49.976562 51.609375 49.214844 C 51.609375 49.214844 51.613281 49.210938 51.613281 49.210938 C 54.46875 48.445312 56.902344 46.578125 58.382812 44.019531 C 59.859375 41.457031 60.261719 38.417969 59.496094 35.5625 C 58.464844 31.714844 57.261719 27.234375 56.234375 23.386719 C 55.46875 20.53125 53.601562 18.097656 51.039062 16.621094 C 48.480469 15.140625 45.4375 14.742188 42.582031 15.507812 C 42.582031 15.507812 42.578125 15.507812 42.578125 15.507812 C 40.933594 15.949219 39.429688 16.753906 38.167969 17.847656 C 38.167969 17.84375 25.859375 17.84375 25.859375 17.84375 C 24.597656 16.753906 23.09375 15.949219 21.453125 15.507812 C 21.449219 15.507812 21.445312 15.507812 21.445312 15.507812 C 18.589844 14.742188 15.546875 15.140625 12.988281 16.621094 C 10.425781 18.097656 8.558594 20.53125 7.792969 23.386719 C 6.765625 27.234375 5.5625 31.714844 4.53125 35.5625 C 3.765625 38.417969 4.167969 41.457031 5.644531 44.019531 C 7.125 46.578125 9.558594 48.445312 12.414062 49.210938 C 12.414062 49.210938 12.417969 49.214844 12.421875 49.214844 C 15.277344 49.976562 18.316406 49.578125 20.878906 48.101562 C 23.375 46.660156 25.210938 44.308594 26.011719 41.542969 Z M 41.265625 39.222656 C 40.839844 37.761719 39.476562 37.800781 39.449219 37.800781 C 31.953125 37.824219 24.578125 37.800781 24.578125 37.800781 C 23.609375 37.824219 22.960938 38.46875 22.761719 39.222656 C 22.636719 39.703125 22.5625 39.972656 22.464844 40.335938 C 22.304688 40.925781 22.304688 40.925781 22.457031 40.363281 C 21.949219 42.261719 20.707031 43.878906 19.007812 44.859375 C 17.304688 45.839844 15.285156 46.109375 13.386719 45.597656 L 13.382812 45.597656 C 11.484375 45.089844 9.867188 43.847656 8.886719 42.148438 C 7.90625 40.445312 7.640625 38.425781 8.148438 36.53125 C 9.175781 32.683594 10.378906 28.203125 11.410156 24.355469 C 11.917969 22.460938 13.15625 20.84375 14.859375 19.859375 C 16.558594 18.878906 18.578125 18.613281 20.476562 19.121094 L 20.484375 19.121094 C 21.75 19.460938 22.890625 20.128906 23.800781 21.039062 C 24.152344 21.390625 24.628906 21.585938 25.125 21.585938 L 38.902344 21.585938 C 39.398438 21.585938 39.875 21.390625 40.226562 21.039062 C 41.136719 20.128906 42.277344 19.460938 43.546875 19.121094 L 43.550781 19.121094 C 45.449219 18.613281 47.46875 18.878906 49.167969 19.859375 C 50.871094 20.84375 52.109375 22.460938 52.617188 24.355469 C 53.648438 28.203125 54.851562 32.683594 55.878906 36.53125 C 56.390625 38.425781 56.121094 40.445312 55.140625 42.148438 C 54.160156 43.847656 52.542969 45.089844 50.644531 45.597656 L 50.640625 45.597656 C 48.742188 46.109375 46.722656 45.839844 45.019531 44.859375 C 43.335938 43.886719 42.105469 42.292969 41.585938 40.421875 Z M 26 41.542969 L 25.992188 41.558594 L 25.953125 41.648438 C 25.972656 41.613281 25.984375 41.578125 26 41.542969 Z M 17.046875 27.585938 L 15.1875 27.585938 C 14.15625 27.585938 13.316406 28.425781 13.316406 29.457031 C 13.316406 30.488281 14.15625 31.328125 15.1875 31.328125 L 17.046875 31.328125 L 17.046875 33.1875 C 17.046875 34.21875 17.886719 35.058594 18.917969 35.058594 C 19.949219 35.058594 20.789062 34.21875 20.789062 33.1875 L 20.789062 31.328125 L 22.644531 31.328125 C 23.679688 31.328125 24.515625 30.488281 24.515625 29.457031 C 24.515625 28.425781 23.679688 27.585938 22.644531 27.585938 L 20.789062 27.585938 L 20.789062 25.730469 C 20.789062 24.695312 19.949219 23.859375 18.917969 23.859375 C 17.886719 23.859375 17.046875 24.695312 17.046875 25.730469 Z M 17.046875 27.585938 "/>
<path style=" stroke:none;fill-rule:evenodd;fill:rgb(100%,100%,100%);fill-opacity:0.501961;" d="M 43.144531 33.078125 C 43.144531 31.984375 44.03125 31.097656 45.125 31.097656 C 46.214844 31.097656 47.101562 31.984375 47.101562 33.078125 C 47.101562 34.167969 46.214844 35.058594 45.125 35.058594 C 44.03125 35.058594 43.144531 34.167969 43.144531 33.078125 Z M 48.742188 27.476562 C 49.835938 27.476562 50.722656 28.363281 50.722656 29.457031 C 50.722656 30.550781 49.835938 31.4375 48.742188 31.4375 C 47.648438 31.4375 46.761719 30.550781 46.761719 29.457031 C 46.761719 28.363281 47.648438 27.476562 48.742188 27.476562 Z M 41.503906 27.476562 C 42.597656 27.476562 43.484375 28.363281 43.484375 29.457031 C 43.484375 30.550781 42.597656 31.4375 41.503906 31.4375 C 40.410156 31.4375 39.523438 30.550781 39.523438 29.457031 C 39.523438 28.363281 40.410156 27.476562 41.503906 27.476562 Z M 43.144531 25.839844 C 43.144531 24.746094 44.03125 23.859375 45.125 23.859375 C 46.214844 23.859375 47.101562 24.746094 47.101562 25.839844 C 47.101562 26.929688 46.214844 27.820312 45.125 27.820312 C 44.03125 27.820312 43.144531 26.929688 43.144531 25.839844 Z M 43.144531 25.839844 "/>
</g>
</svg>
